<svg width="512" height="512" viewBox="0 0 512 512" fill="none" xmlns="http://www.w3.org/2000/svg">
<g filter="url(#filter0_i_3524_633)">
<rect width="512" height="512" rx="128" fill="#5449D0"/>
<g filter="url(#filter1_i_3524_633)">
<path d="M236.375 416C223.161 416 211.228 414.249 200.576 410.747C189.923 407.38 180.754 402.465 173.069 396C165.248 389.535 159.248 381.859 155.068 372.97C151.023 364.081 149 354.249 149 343.475C149 334.451 150.416 325.966 153.247 318.02C156.214 309.939 160.326 302.936 165.585 297.01C170.844 291.084 176.979 286.505 183.991 283.273C191.002 279.906 198.418 278.222 206.239 278.222C215.947 278.222 224.105 280.646 230.712 285.495C237.319 290.343 241.432 297.01 243.05 305.495C228.622 305.495 217.161 309.333 208.666 317.01C204.621 320.646 201.452 325.091 199.16 330.343C197.003 335.596 195.924 341.387 195.924 347.717C195.924 359.838 199.43 369.468 206.441 376.606C213.588 383.609 223.161 387.111 235.162 387.111C242.308 387.111 248.983 385.832 255.185 383.273C261.388 380.579 266.781 376.943 271.366 372.364C275.95 367.785 279.456 362.33 281.883 356C284.445 349.535 285.726 342.667 285.726 335.394C285.726 321.926 281.142 307.919 271.973 293.374C268.332 287.717 264.287 282.195 259.837 276.808C255.522 271.286 249.455 264.013 241.634 254.99C234.622 246.909 228.757 239.906 224.038 233.98C219.318 228.054 215.071 221.993 211.295 215.798C202.126 200.848 197.542 186.168 197.542 171.758C197.542 160.983 199.834 151.017 204.419 141.859C209.003 132.566 215.543 124.485 224.038 117.616C232.532 110.747 242.443 105.428 253.77 101.657C265.096 97.8855 277.299 96 290.378 96C312.627 96 330.493 101.253 343.976 111.758C350.449 116.875 355.37 123.003 358.741 130.141C362.247 137.279 364 145.226 364 153.98C364 165.428 361.101 174.788 355.303 182.061C352.606 185.562 349.235 188.256 345.19 190.141C341.28 192.027 337.1 192.97 332.65 192.97C322.267 192.97 313.84 188.66 307.368 180.04C312.627 176.269 316.739 171.286 319.706 165.091C322.807 158.761 324.357 152.027 324.357 144.889C324.357 136 321.728 128.997 316.469 123.879C311.211 118.626 303.997 116 294.828 116C289.299 116 284.176 117.01 279.456 119.03C274.872 121.051 270.961 123.946 267.725 127.717C264.354 131.488 261.725 135.933 259.837 141.051C258.084 146.168 257.208 151.758 257.208 157.818C257.208 166.438 259.23 174.721 263.276 182.667C267.321 190.613 273.119 198.896 280.67 207.515C287.412 215.461 294.693 223.34 302.514 231.152C320.717 250.007 333.594 268.391 341.145 286.303C345.595 296.943 347.819 308.66 347.819 321.455C347.819 334.923 345.055 347.448 339.527 359.03C333.998 370.478 326.11 380.444 315.863 388.929C305.615 397.549 293.682 404.216 280.063 408.929C266.444 413.643 251.882 416 236.375 416Z" fill="white"/>
</g>
</g>
<defs>
<filter id="filter0_i_3524_633" x="0" y="0" width="512" height="528" filterUnits="userSpaceOnUse" color-interpolation-filters="sRGB">
<feFlood flood-opacity="0" result="BackgroundImageFix"/>
<feBlend mode="normal" in="SourceGraphic" in2="BackgroundImageFix" result="shape"/>
<feColorMatrix in="SourceAlpha" type="matrix" values="0 0 0 0 0 0 0 0 0 0 0 0 0 0 0 0 0 0 127 0" result="hardAlpha"/>
<feOffset dy="16"/>
<feGaussianBlur stdDeviation="16"/>
<feComposite in2="hardAlpha" operator="arithmetic" k2="-1" k3="1"/>
<feColorMatrix type="matrix" values="0 0 0 0 1 0 0 0 0 1 0 0 0 0 1 0 0 0 0.3 0"/>
<feBlend mode="normal" in2="shape" result="effect1_innerShadow_3524_633"/>
</filter>
<filter id="filter1_i_3524_633" x="149" y="96" width="215" height="328" filterUnits="userSpaceOnUse" color-interpolation-filters="sRGB">
<feFlood flood-opacity="0" result="BackgroundImageFix"/>
<feBlend mode="normal" in="SourceGraphic" in2="BackgroundImageFix" result="shape"/>
<feColorMatrix in="SourceAlpha" type="matrix" values="0 0 0 0 0 0 0 0 0 0 0 0 0 0 0 0 0 0 127 0" result="hardAlpha"/>
<feOffset dy="8"/>
<feGaussianBlur stdDeviation="8"/>
<feComposite in2="hardAlpha" operator="arithmetic" k2="-1" k3="1"/>
<feColorMatrix type="matrix" values="0 0 0 0 0 0 0 0 0 0 0 0 0 0 0 0 0 0 0.5 0"/>
<feBlend mode="normal" in2="shape" result="effect1_innerShadow_3524_633"/>
</filter>
</defs>
</svg>
